<?xml version="1.0" encoding="iso-8859-1"?>
<!-- Generator: Adobe Illustrator 18.0.0, SVG Export Plug-In . SVG Version: 6.00 Build 0)  -->
<!DOCTYPE svg PUBLIC "-//W3C//DTD SVG 1.1//EN" "http://www.w3.org/Graphics/SVG/1.1/DTD/svg11.dtd">
<svg version="1.1" id="Capa_1" xmlns="http://www.w3.org/2000/svg" xmlns:xlink="http://www.w3.org/1999/xlink" x="0px" y="0px"
	 viewBox="0 0 441.902 441.902" style="enable-background:new 0 0 441.902 441.902;" xml:space="preserve">
<path d="M329.375,293.848c58.766,0,106.576-47.811,106.576-106.58c0-58.766-47.811-106.576-106.576-106.576
	c-4.114,0-8.213,0.234-12.277,0.703c-4.898-20.225-15.654-38.646-31.178-53.025C266.168,10.076,240.456,0,213.52,0
	c-49.559,0-91.801,33.842-103.422,80.719C52.446,82.012,5.951,129.313,5.951,187.268c0,58.77,47.81,106.58,106.577,106.58h53.923
	v41.565h-61.883c-5.294-9.533-15.462-16-27.117-16c-17.093,0-31,13.906-31,31c0,17.094,13.907,31,31,31
	c11.655,0,21.823-6.469,27.117-16h76.883c8.284,0,15-6.717,15-15v-56.565h9.5v89.938c-9.532,5.293-16,15.463-16,27.117
	c0,17.094,13.907,31,31,31c17.093,0,31-13.906,31-31c0-11.654-6.468-21.824-16-27.117v-89.938h9.5v57.994c0,8.285,6.716,15,15,15
	h77.73c5.488,8.742,15.208,14.57,26.27,14.57c17.093,0,31-13.906,31-31c0-17.094-13.907-31-31-31
	c-12.229,0-22.825,7.119-27.866,17.43h-61.134v-42.994H329.375z"/>
<g>
</g>
<g>
</g>
<g>
</g>
<g>
</g>
<g>
</g>
<g>
</g>
<g>
</g>
<g>
</g>
<g>
</g>
<g>
</g>
<g>
</g>
<g>
</g>
<g>
</g>
<g>
</g>
<g>
</g>
</svg>
